<svg xmlns="http://www.w3.org/2000/svg" width="250" height="249" fill="none" viewBox="0 0 250 249">
<!-- SVG created with Arrow, by QuiverAI (https://quiver.ai) -->
  <path d="m148.8 87.76v24.38h-46.18v-24.38h46.18zm0.13-2.75h-47.69c-1.08 0-1.68 0.59-1.68 1.52v27.68c0 1.02 0.62 1.48 1.5 1.48h47.74c1.11 0 1.48-0.52 1.48-1.45v-27.62c0-1.01-0.57-1.61-1.35-1.61z" fill="url(#paint0_linear_463_11110)"/>
  <path d="m175.7 152.8c-1.31 0-1.41 1.35-1.84 2.1v41.51h-61.79v-6.45h51.83c1.31 0 1.87-0.56 1.87-1.85v-5.41h0.66c1.14 0 1.56-0.69 1.56-1.72v-23.03c0-1.15-0.59-1.74-1.62-1.74s-1.37 0.71-1.37 1.86v21.56h-79.49v-115.7h79.58v38.61c0 1.15 0.6 1.74 1.46 1.74 0.87 0 1.44-0.69 1.44-1.84v-30.7h6.03v20.45c0 1.15 0.59 1.74 1.57 1.74s1.32-0.78 1.32-1.83v-21.51c0-1.15-0.59-1.74-1.72-1.74h-7.2v-6.36c0-1.15-0.59-1.74-1.72-1.74h-88.81c-6.56 0-9.9 6.45-9.9 10.7v118.9c0 6.19 5.35 9.77 9.18 9.77h15.77v9.76c0 1.15 0.59 1.74 1.73 1.74l8.37-5.94 7.68 5.72c1.31 0 1.91-0.59 1.91-1.74v-9.89h62.99c1.43 0 1.66-0.69 1.66-1.72v-43.13c0-1.15-0.41-2.05-1.15-2.05zm-105-81.38c0-3.61 3.08-7.52 6.21-7.52h5.42v115.7h-4.5c-2.55 0-4.41 0.85-7.13 2.3v-110.5zm38.48 135.2-6.44-4.63-6.81 4.85v-15.65h13.25v15.43zm-31.68-10.22c-4.02 0-6.67-2.91-6.67-6.61 0-3.69 2.61-6.31 6.63-6.31h84.97v4.62h-80.18c-1.14 0-1.73 0.59-1.73 1.52s0.59 1.57 1.73 1.57h10.3v5.21h-15.05z" fill="url(#paint1_linear_463_11110)"/>
  <path d="m211.2 76.38c-1.31-0.6-1.9 0.24-3.21 0.73-15.89 7.86-29.31 18.1-40.71 34.91-9.14 13.7-13.69 27.96-13.83 41.75l-9.08 12.96c-0.79 1.14-0.41 1.98 0.46 2.44s1.81-0.06 2.32-0.89l9.3-13.54c12.56-2.55 22.36-8.66 32.26-20.23 14.13-16.81 21.27-33.38 22.73-54.19 0.14-1.6 0.61-3.24-0.24-3.94zm-27.2 22.36-1.04 15.89-15.89 20.88-1.45-16.92c5.02-8.09 11.53-15.28 18.38-20.8v0.95zm-21.1 26.3 1.53 13.05-7.67 9.64c0.76-7.76 2.63-14.65 6.14-22.69zm3.93 21.67c-2.39 1.09-4.98 1.91-7.92 2.63l9.22-11.48 15.71-3.08c-4.91 5.2-10 9.2-17.01 11.93zm21.26-15.11-17.25 3.51 14.34-19.29 15.71-4.86c-3.16 7.11-7.79 14.3-12.8 20.64zm14.75-24.2-15 4.19 19.81-27.78c0.44-0.33 0.88-0.55 1.31-0.78-0.88 8.76-2.82 17.05-6.12 24.37zm-16.65-11.94c6.96-6.11 13.24-10.35 19.44-12.9l-19.44 26.66v-13.76z" fill="url(#paint2_linear_463_11110)"/>
  <defs>
    <linearGradient id="paint0_linear_463_11110" x1="124.9" x2="124.9" y1="85.01" y2="115.7" gradientUnits="userSpaceOnUse">
      <stop stop-color="#C59E53" offset="0"/>
      <stop stop-color="#BD9A50" offset="1"/>
    </linearGradient>
    <linearGradient id="paint1_linear_463_11110" x1="122.2" x2="122.2" y1="60.73" y2="211.6" gradientUnits="userSpaceOnUse">
      <stop stop-color="#C59E53" offset="0"/>
      <stop stop-color="#BD9A50" offset="1"/>
    </linearGradient>
    <linearGradient id="paint2_linear_463_11110" x1="177.8" x2="177.8" y1="76.1" y2="169.4" gradientUnits="userSpaceOnUse">
      <stop stop-color="#C59E53" offset="0"/>
      <stop stop-color="#BD9A50" offset="1"/>
    </linearGradient>
  </defs>
</svg>