<svg xmlns="http://www.w3.org/2000/svg" width="250" height="251" viewBox="0 0 250 251">
<!-- SVG created with Arrow, by QuiverAI (https://quiver.ai) -->
  <path d="m124.5 7.27c-64.39 0-117.2 52.44-117.2 118.3 0 64.81 52.39 118.1 116.5 118.1 65.41 0 119-51.41 119-118.1 0-64.72-52.75-118.3-118.3-118.3zm111.6 109.4c-7.97-8.83-12.96-13.62-24.32-20.92l11.86-21.79c7.57 13.11 11.44 27.92 12.46 42.71zm-16.36-49.55-12.92 24.29c-14.19-8.87-24.41-14.56-44.43-21.2l-32.62-56.8c39.22 1.06 71.32 21.35 89.97 53.71zm-96.96-53.77 30.76 55.28c-12.39-2.43-20.52-3.55-28.42-3.55l-94.38-0.03c20.11-30.89 53.43-51.62 92.04-51.7zm-109.9 112.3c0-20.51 5.2-39.16 14.01-54.73l70.73 0.42c-11.4 6.53-19.23 14.91-26.5 28.73l-46.2 75.51c-7.45-14.48-12.04-31.34-12.04-49.93zm106.7 111.5c-38.11-0.88-69.57-20.69-90.87-54.17l36.04-60.49 0.18 0.15c-0.82 15.56 4.03 29.57 13.48 42.44l41.17 72.07zm4.62-58.25c-29.82 0-52.9-23.95-52.98-53.19-0.08-30.46 23.77-54.68 53.34-54.68 29.2 0 53.66 25.64 53.66 55.28 0 28.89-23.5 52.59-54.02 52.59zm1.46 58.23-32.78-60.31c10.27 6.77 20.06 8.83 31.1 8.83h94.24c-20.51 31.68-51.47 50.95-92.56 51.48zm43.55-58.2c25.49-8.8 45.69-18.85 67.08-45.1-1.07 16.38-5.38 31.95-13.71 45.1h-53.37zm-9.09-4.95c15.59-11.98 24.46-28.43 24.46-48.88 0-12.47-3.62-22.3-16.8-45.33 24.84 8.31 42.95 19.63 67.68 45.18-18.4 27.44-41.27 40.23-75.34 49.03z" fill="#BE9E55"/>
  <path d="m153.1 112.2c-2.92 4.8-5.99 7.2-11.63 6.96-7.54-0.33-11.87-7.5-10.77-13.3 0.88-4.8 4.95-6.63 8.25-7.85-5.34-3.04-8.45-4.09-15.01-4.09-18.06 0-30.45 15.26-30.45 31.58 0 17.26 13.31 31.66 31.12 31.66 17.62 0 31.5-16.02 31.5-32.29 0-4.8-0.84-8.4-3.01-12.67zm-28.55 38.38c-14.99 0-24.73-13.12-24.73-25 0-14.06 10.88-25.52 25.87-25.52h1.11c-1.96 3.28-2.64 5.35-2.51 9.37 0.42 9.61 8.61 15.7 16.18 15.7 4.3 0 6.59-0.83 9.33-2.81 0.97 14.46-10.65 28.26-25.25 28.26z" fill="#BE9E55"/>
</svg>