<svg xmlns="http://www.w3.org/2000/svg" width="250" height="249" fill="none" viewBox="0 0 250 249">
<!-- SVG created with Arrow, by QuiverAI (https://quiver.ai) -->
  <path d="m198.9 140.8-23.75-51.07c3.25-1.63 4.53-5.21 3.38-8.7-1.18-3.63-4.3-5.87-8.08-5.44-3.03 0.35-5.2 2.26-6 4.9-6.52-0.81-12.24-4.46-17.93-6.78-6.24-2.54-12.67-2.07-18.39 1.37-1.03 0.62-2.08 0.97-3.08 1.02l6.35-10.94c0.47-0.74 0.22-1.55-0.14-2.09l-7.58-12.38c-0.81-1.34-2.58-1.09-3.21 0.13l-7.24 12.28c-0.53 0.88-0.8 1.53-0.08 2.62l6.31 10.32c-0.86-0.12-1.75-0.44-2.65-0.97-5.94-3.57-12.36-3.95-18.88-1.13-5.51 2.48-10.5 5.53-17.55 6.37-1.36-3.1-3.53-4.92-7.01-4.83-3.95 0.06-6.89 3.08-7.42 6.86-0.45 3.26 1.07 5.87 3.7 7.46l-23.82 51.07c-0.35 0.54-0.47 1.22-0.15 1.94 5.44 11.11 14.35 17.84 27.25 17.84 12.4 0 22.02-6.88 27.02-17.99 0.25-0.54 0.04-1.29-0.25-1.83l-23.75-51.36c1.46-0.82 2.58-2.04 3.25-3.47h37v93.3h-12.24c-6.1 0-8.63 5.27-8.81 9.47h-7.38c-7.37 0-9.62 5.97-9.7 10.28-0.02 1.1 0.72 1.75 1.73 1.75h85.85c1.1 0 1.68-0.8 1.38-2.27-0.53-5.27-3.27-9.71-9.45-9.71h-7.86c-0.49-5.02-3.33-9.46-8.94-9.46h-12.33v-92.98h37.47c0.86 1.52 2.18 2.7 3.76 3.42l-24.62 50.72c-0.35 0.72-0.61 1.35-0.25 2.23 5.26 11.11 15.01 18 27.41 18s23.4-7.57 26.93-18.25c0.25-0.64 0.1-1.16-0.25-1.7zm-103 2.4c-5.59 9.42-12.75 14.06-23.31 14.06-10.03 0-17.69-5.2-22.59-14.06h45.9zm-0.1-3.4h-45.6l22.1-47.61c0.55-1.11 0.95-1.19 1.52-0.11l21.98 47.72zm-23.33-53.49c-3.29-0.46-5.06-4.03-3.12-6.66 1.69-2.48 5.52-2.1 6.8 0.45 1.55 3.19-0.32 6.45-3.68 6.21zm43.9-21.99 5.94-9.07 5.36 8.45-5.94 9.95-5.36-9.33zm-0.22 18.66h-32.65c8.2-2.11 12.81-6.84 20.5-7.78 4.03-0.49 8.2 0.97 11.64 3.4 0.43 0.47 0.51 1.03 0.51 1.75v2.63zm41.32 109.2c3.51 0 5.2 2.35 5.83 5.5h-80.73c0.64-3.68 2.33-5.5 5.81-5.5h69.09zm-11.3-4.24h-47.56c0.32-3.48 2.15-5.44 5.3-5.44h37.81c3.28 0 4.28 2.63 4.45 5.44zm-20.46-9.31h-6.41v-96.65c0-2.99 1.2-4.1 3.37-4.15 2.17 0 3.04 1.43 3.04 3.85v96.95zm2.57-95.67v-2.58c0-0.88 0.19-1.5 0.82-1.97 5.67-3.76 11.09-3.95 17.61-1.53 5.2 2.02 9.74 4.7 15.79 6.08h-34.22zm43.38-3.92c3.3-0.76 5.78 2.27 4.63 5.44-1.02 2.91-4.96 3.55-6.98 1.13-2.17-2.62-0.81-5.89 2.35-6.57zm-22.45 60.67 23.25-47.7c0.36-0.88 0.94-0.93 1.5 0.15l20.98 47.55h-45.73zm23.04 17.61c-10.14 0-18.15-5.13-23.19-14.16h45.9c-5.26 9.43-12.16 14.16-22.71 14.16z" fill="url(#paint0_linear_133_2281)"/>
  <defs>
    <linearGradient id="paint0_linear_133_2281" x1="122.4" x2="122.4" y1="49.73" y2="200.8" gradientUnits="userSpaceOnUse">
      <stop stop-color="#BC9547" offset="0"/>
      <stop stop-color="#CBA15A" offset=".4948"/>
      <stop stop-color="#B7904B" offset="1"/>
    </linearGradient>
  </defs>
</svg>