<svg xmlns="http://www.w3.org/2000/svg" width="250" height="249" fill="none" viewBox="0 0 250 249">
<!-- SVG created with Arrow, by QuiverAI (https://quiver.ai) -->
  <path d="m123 57c-37.94 0-70.08 30.06-70.08 71.09 0 39.82 30.79 70.77 70.35 70.77 39.41 0 69.98-31.07 69.98-70.44 0-38.23-29.92-71.42-70.25-71.42zm59.67 39.99c4.61 8.18 6.71 16.8 6.97 25.73-4.77-5.07-9.26-9.02-13.79-12.33l6.82-13.4zm-56.97-36.08c23.23 0.68 43.11 13.03 55.48 32.2l-8.27 14.38c-9.53-6.27-17.97-9.74-27.8-12.24l-19.41-34.34zm-3.04-0.27 17.98 32.93-0.52 0.04c-5.19-1.11-9.87-1.53-15.22-1.53l-58.2 0.12c12.04-18.51 31.9-31.49 55.96-31.56zm-65.96 67.5c0-12.02 2.89-22.87 7.85-32.34h42.55c-6.76 3.02-12.19 8.97-15.98 15.98l-27.62 46.83c-4.16-8.35-6.8-18.7-6.8-30.47zm66.48 66.99-19.68-35.8c5.73 3.51 11.31 4.95 18.09 4.95l58.36 0.11c-12.55 18.85-31.12 30.48-55.6 30.74h-1.17zm59.24-34.12-32.88-0.3c16.19-5.48 28.41-14.43 39.94-27.48-0.8 9.88-2.71 18.94-7.06 27.78zm-37.62-3.79c9.39-7.07 14.72-17.59 14.72-28.91 0-10.43-4.36-20.03-11.27-28.12 14.58 4.64 26.92 11.97 40.7 26.9l0.36 1.11c-12.04 16.08-25.47 24.87-44.51 29.02zm-21.92-61.53c17.72 0 32.83 15.66 32.83 32.84 0 16.7-13.4 32.18-33.63 32.18h-0.87c-17.31 0-30.04-15.65-30.04-32.2 0-17.18 13.43-32.82 31.71-32.82z" fill="url(#paint0_linear_1966_4114)"/>
  <path d="m123.8 147.3c10.95 0 19.07-10.65 19.07-18.35 0-2.64-0.17-8.4-2.04-9.09-2.1 2.93-3.96 4.08-6.96 4.08-4.64 0-6.64-3.24-6.64-5.95 0-2.57 1.14-4.44 5.19-6.85-3.26-1.74-5.98-2.24-8.62-2.24-11.72 0-19.48 9.41-19.48 19.18 0 10.86 8.52 19.22 19.48 19.22zm-0.54-35.1c0.74 0 1.08 0.04 1.82 0.16-1.5 1.95-1.94 3.63-1.94 5.68 0 6.26 4.75 9.39 9.64 9.39 2.36 0 3.78-0.7 5.88-1.39 0.1 0.83 0.15 1.32 0.15 2.18 0 9.03-7.84 15.97-15.33 15.97-9.75 0-15.76-8.15-15.76-15.75 0-8.55 7.69-16.24 15.54-16.24z" fill="url(#paint1_linear_1966_4114)"/>
  <defs>
    <linearGradient id="paint0_linear_1966_4114" x1="123.1" x2="123.1" y1="57" y2="198.9" gradientUnits="userSpaceOnUse">
      <stop stop-color="#C19A52" offset="0"/>
      <stop stop-color="#C49C51" offset="1"/>
    </linearGradient>
    <linearGradient id="paint1_linear_1966_4114" x1="123.5" x2="123.5" y1="108.9" y2="147.3" gradientUnits="userSpaceOnUse">
      <stop stop-color="#C19A52" offset="0"/>
      <stop stop-color="#C49C51" offset="1"/>
    </linearGradient>
  </defs>
</svg>