<svg xmlns="http://www.w3.org/2000/svg" width="185" height="185" viewBox="0 0 185 185">
<!-- SVG created with Arrow, by QuiverAI (https://quiver.ai) -->
  <path d="m126.9 25.91-34.03-20.2c-0.52-0.31-1.18-0.3-1.69 0.02l-33.21 20.2c-0.52 0.31-0.84 0.86-0.84 1.46v30.18c0 0.6 0.33 1.17 0.86 1.46l28.81 16.85h-2.48c-3.87 0-6.15 2.78-6.15 5.75 0 3.27 2.59 5.41 6.58 5.41v84.2c0 5.01 3.76 7.62 7.35 7.62 4.64 0 7.75-3.77 7.75-7.24v-4.94h18.01c1.01 0 1.65-0.87 1.65-1.62v-10.12c0-0.98-0.88-1.66-1.71-1.66h-7.75v-7.09h7.75c0.93 0 1.71-0.78 1.71-1.71v-9.97c0-0.92-0.78-1.7-1.71-1.7h-17.95v-45.77h0.74c4.22 0 5.84-3.16 5.84-5.41 0-2.91-2.27-5.75-5.94-5.75h-2.37l28.86-17.09c0.54-0.3 0.88-0.86 0.88-1.48v-29.92c0-0.62-0.37-1.19-0.96-1.48zm-33.4-16.25 28.72 17.35-13.7 3.06c-0.59 0.14-1.07 0.58-1.26 1.16l-1.14 3.39-4.76-5.16c-0.16-4.95-3.14-8.3-7.86-8.89v-10.91zm-1.57 13.79c4.04 0 5.92 3.31 5.92 6.05 0 3.76-2.75 6-5.44 6-3.87 0-5.83-3.08-5.83-5.97 0-3.35 2.77-6.08 5.35-6.08zm-0.8-13.75v10.92c-4.45 0.69-7.33 4.01-7.55 8.77l-5.03 5.55-1.55-4.06c-0.22-0.59-0.71-1.03-1.33-1.16l-11.96-2.94 27.42-17.08zm-30.68 19.8 14.06 3.73 1.92 3.75-15.98 16.79v-24.27zm1.43 27.85 15.48-16.44 12.04 32.3-27.52-15.86zm34.65 77.27v36.6c0 3.16-2.48 4.65-4.43 4.65-2.27 0-4.03-2.06-4.03-4.76v-84.07h8.46v47.58zm4.06-55.43c2.36 0 2.76 1.75 2.76 2.44 0 0.55-0.22 2.46-2.76 2.46h-15.84c-0.95 0-3.26-0.25-3.26-2.46 0-0.8 0.47-2.44 2.83-2.44h16.27zm-8.04-6.32-12.68-34.88 4.65-4.87c1.6 3.19 4.66 5.28 8.13 5.28 3.63 0 6.67-2.02 8.16-5.21l4.61 4.76-12.87 34.92zm2.25 0.54 12.65-33.48 16.26 17-28.91 16.48zm29.63-19.85-15-16.05 0.79-4.56 14.21-3.44v24.05zm-8.4 82.24v7.39h-7.58c-1.05 0-1.71 0.94-1.71 1.77v10.12c0 1.1 0.92 1.69 1.76 1.69h7.7v6.92h-16.35v-27.89h16.18z" fill="#C49F54"/>
</svg>