<?xml version="1.0" encoding="UTF-8"?>
<svg id="Layer_1" xmlns="http://www.w3.org/2000/svg" version="1.1" viewBox="0 0 921 841.89">
  <defs>
    <style>
      .st0 { fill: #FFFFFF; }
      .st1 { fill: #FFFFFF; }
    </style>
  </defs>
  <g>
    <path class="st0" d="M107.95,673.31l-7.49,22.68h-9.62l24.6-72.1h11.12l24.6,72.1h-9.95l-7.7-22.68h-25.57ZM131.7,666.04l-7.17-20.75c-1.61-4.7-2.67-8.99-3.75-13.16h-.21c-1.07,4.17-2.14,8.67-3.64,13.04l-7.06,20.86h21.82Z"/>
    <path class="st0" d="M231.05,662.18h-27.91v26h31.23v7.81h-40.64v-72.1h39.04v7.82h-29.63v22.78h27.91v7.7Z"/>
    <path class="st0" d="M277.35,684.65c4.17,2.67,10.16,4.71,16.58,4.71,9.52,0,15.08-5.03,15.08-12.3,0-6.63-3.85-10.59-13.58-14.23-11.77-4.27-19.04-10.48-19.04-20.54,0-11.23,9.3-19.58,23.32-19.58,7.27,0,12.73,1.71,15.83,3.54l-2.57,7.59c-2.25-1.39-7.06-3.42-13.58-3.42-9.84,0-13.58,5.87-13.58,10.8,0,6.74,4.39,10.05,14.33,13.91,12.19,4.71,18.29,10.59,18.29,21.18,0,11.12-8.13,20.84-25.14,20.84-6.95,0-14.54-2.14-18.4-4.71l2.46-7.8Z"/>
    <path class="st0" d="M377.03,631.81h-21.92v-7.92h53.37v7.92h-22.03v64.18h-9.42v-64.18Z"/>
    <path class="st0" d="M457.88,623.89v30.17h34.87v-30.17h9.41v72.1h-9.41v-33.81h-34.87v33.81h-9.41v-72.1h9.41Z"/>
    <path class="st0" d="M587.61,662.18h-27.92v26h31.24v7.81h-40.65v-72.1h39.04v7.82h-29.64v22.78h27.92v7.7Z"/>
    <path class="st0" d="M650.49,631.81h-21.92v-7.92h53.37v7.92h-22.03v64.18h-9.41v-64.18Z"/>
    <path class="st0" d="M731.34,623.89v72.1h-9.41v-72.1h9.41Z"/>
    <path class="st0" d="M829.95,693.74c-3.32,1.71-10.27,3.42-19.04,3.42-20.32,0-35.51-12.83-35.51-36.57s15.29-37.87,37.65-37.87c8.88,0,14.65,1.92,17.11,3.21l-2.35,7.59c-3.42-1.71-8.45-2.99-14.43-2.99-16.9,0-28.14,10.81-28.14,29.74,0,17.75,10.17,28.98,27.59,28.98,5.79,0,11.56-1.18,15.29-2.99l1.83,7.49Z"/>
  </g>
  <g>
    <path class="st1" d="M236.91,121.14c-13.03,0-23.59,10.57-23.59,23.6s10.56,23.6,23.6,23.6c13.03,0,23.6-10.57,23.6-23.6s-10.57-23.6-23.6-23.6Z"/>
    <path class="st1" d="M236.92,195.34c-6.52,0-11.8,3.1-11.8,6.91h0v313.62h23.6V202.25h0c0-3.82-5.29-6.91-11.8-6.91Z"/>
    <path class="st1" d="M691,195.33c-6.04,0-12.08,2.3-16.7,6.91l-8.42,8.42c2.08-2.02,4.81-3.02,7.54-3.02s5.45,1.01,7.53,3.02c2.09,2.02,3.13,4.66,3.13,7.29,0,.06-.01.12-.01.18h.01v297.73h23.59V202.25h0c0-3.82-7.47-6.92-16.68-6.92Z"/>
    <path class="st1" d="M547.42,345.82h0l-8.34-8.33-16.69-16.69-32.82-32.81-85.72-85.73c-4.61-4.61-10.65-6.91-16.69-6.91-9.22,0-16.69,3.1-16.69,6.91v313.62h23.6V225.85l78.82,78.82,49.5,49.5c2.89,2.89,6.53,5.01,10.6,6.1,1.95.51,3.99.82,6.09.82,6.51,0,12.41-2.64,16.69-6.92l8.41-8.41c-1.69,1.66-4.82,2.78-8.41,2.78s-6.65-1.09-8.35-2.72Z"/>
  </g>
</svg>
