<?xml version="1.0" encoding="UTF-8"?>
<svg xmlns="http://www.w3.org/2000/svg" viewBox="80 610 780 100">
  <path fill="#E8703A" d="M107.95,673.31l-7.49,22.68h-9.62l24.6-72.1h11.12l24.6,72.1h-9.95l-7.7-22.68h-25.57ZM131.7,666.04l-7.17-20.75c-1.61-4.7-2.67-8.99-3.75-13.16h-.21c-1.07,4.17-2.14,8.67-3.64,13.04l-7.06,20.86h21.82Z"/>
  <path fill="#E8703A" d="M231.05,662.18h-27.91v26h31.23v7.81h-40.64v-72.1h39.04v7.82h-29.63v22.78h27.91v7.7Z"/>
  <path fill="#E8703A" d="M277.35,684.65c4.17,2.67,10.16,4.71,16.58,4.71,9.52,0,15.08-5.03,15.08-12.3,0-6.63-3.85-10.59-13.58-14.23-11.77-4.27-19.04-10.48-19.04-20.54,0-11.23,9.3-19.58,23.32-19.58,7.27,0,12.73,1.71,15.83,3.54l-2.57,7.59c-2.25-1.39-7.06-3.42-13.58-3.42-9.84,0-13.58,5.87-13.58,10.8,0,6.74,4.39,10.05,14.33,13.91,12.19,4.71,18.29,10.59,18.29,21.18,0,11.12-8.13,20.84-25.14,20.84-6.95,0-14.54-2.14-18.4-4.71l2.46-7.8Z"/>
  <path fill="#E8703A" d="M377.03,631.81h-21.92v-7.92h53.37v7.92h-22.03v64.18h-9.42v-64.18Z"/>
  <path fill="#E8703A" d="M457.88,623.89v30.17h34.87v-30.17h9.41v72.1h-9.41v-33.81h-34.87v33.81h-9.41v-72.1h9.41Z"/>
  <path fill="#E8703A" d="M587.61,662.18h-27.92v26h31.24v7.81h-40.65v-72.1h39.04v7.82h-29.64v22.78h27.92v7.7Z"/>
  <path fill="#E8703A" d="M650.49,631.81h-21.92v-7.92h53.37v7.92h-22.03v64.18h-9.41v-64.18Z"/>
  <path fill="#E8703A" d="M731.34,623.89v72.1h-9.41v-72.1h9.41Z"/>
  <path fill="#E8703A" d="M829.95,693.74c-3.32,1.71-10.27,3.42-19.04,3.42-20.32,0-35.51-12.83-35.51-36.57s15.29-37.87,37.65-37.87c8.88,0,14.65,1.92,17.11,3.21l-2.35,7.59c-3.42-1.71-8.45-2.99-14.43-2.99-16.9,0-28.14,10.81-28.14,29.74,0,17.75,10.17,28.98,27.59,28.98,5.79,0,11.56-1.18,15.29-2.99l1.83,7.49Z"/>
</svg>
