<?xml version="1.0" encoding="UTF-8"?>
<svg xmlns="http://www.w3.org/2000/svg" viewBox="180 100 560 440">
  <path fill="#E8703A" d="M236.91,121.14c-13.03,0-23.59,10.57-23.59,23.6s10.56,23.6,23.6,23.6c13.03,0,23.6-10.57,23.6-23.6s-10.57-23.6-23.6-23.6Z"/>
  <path fill="#E8703A" d="M236.92,195.34c-6.52,0-11.8,3.1-11.8,6.91h0v313.62h23.6V202.25h0c0-3.82-5.29-6.91-11.8-6.91Z"/>
  <path fill="#E8703A" d="M691,195.33c-6.04,0-12.08,2.3-16.7,6.91l-8.42,8.42c2.08-2.02,4.81-3.02,7.54-3.02s5.45,1.01,7.53,3.02c2.09,2.02,3.13,4.66,3.13,7.29,0,.06-.01.12-.01.18h.01v297.73h23.59V202.25h0c0-3.82-7.47-6.92-16.68-6.92Z"/>
  <path fill="#E8703A" d="M547.42,345.82h0l-8.34-8.33-16.69-16.69-32.82-32.81-85.72-85.73c-4.61-4.61-10.65-6.91-16.69-6.91-9.22,0-16.69,3.1-16.69,6.91v313.62h23.6V225.85l78.82,78.82,49.5,49.5c2.89,2.89,6.53,5.01,10.6,6.1,1.95.51,3.99.82,6.09.82,6.51,0,12.41-2.64,16.69-6.92l8.41-8.41c-1.69,1.66-4.82,2.78-8.41,2.78s-6.65-1.09-8.35-2.72Z"/>
</svg>
