<svg xmlns="http://www.w3.org/2000/svg" width="200" height="200" fill="none" viewBox="0 0 200 200">
<!-- SVG created with Arrow, by QuiverAI (https://quiver.ai) -->
  <path d="m174.1 76.78c5.12 11.07 1.68 23.53-10.27 27.19-6.11 2.03-11.87 2.11-16.04 6.09 2.56 4.46 5.12 8.89 10.8 10.1 6.12-1.38 14.19-2.08 21.69 6.59 5.55 6.48 7.9 16.16 7.9 16.6-4.94-0.67-13.08-0.47-21.5-5.66-6.42-3.98-7.61-8.07-8.74-16.04l-7.78-5.76c3.55 8.97 4.75 21.38 4.99 31.02 4.97 3.18 11.83 9.53 11.76 19.28-0.05 8.62-5.73 17.51-8.95 22.49-4.98-6.32-11.48-14.55-11.27-24.76 0.19-8.79 6.29-14.69 8.2-16.71-0.17-6.83-2.08-17.6-4.7-26.97-1.01-1.14-2.22-2.18-3.16-3.5 1.82 4.44-0.41 8.93-2.15 10.86 1.2 6.02 1.91 13.39-3.87 20.21-6.24 7.42-18.56 9.78-18.56 9.78-0.17-8.46 1.18-19.43 7.62-24.73 5.56-4.6 9.09-3.95 14.64-5.78 2.49-2.87 3.98-8.22 2.25-13.62-0.32-1.54-0.9-2.43-0.9-2.43-3.85 2.98-7.65 5.08-13.28 4.86-8.67-0.33-12.67-4.76-16.35-9.91" stroke="#C99A42" stroke-linecap="round" stroke-linejoin="round" stroke-width="1.5"/>
  <path d="m155.1 147.4 1.69 25.8" stroke="#C99A42" stroke-linecap="round" stroke-linejoin="round" stroke-width="1.5"/>
  <path d="m145.3 127.8-15.86 20.41" stroke="#C99A42" stroke-linecap="round" stroke-linejoin="round" stroke-width="1.5"/>
  <path d="m158.3 121.1 20.04 14.85" stroke="#C99A42" stroke-linecap="round" stroke-linejoin="round" stroke-width="1.5"/>
  <path d="m89.98 53.84c-1.25-7.93-0.3-19.13 7.65-24.33 3.98-2.65 8.12-1.91 13.65-4.47 5.04-2.35 8.83-7.28 16.6-7.38 6.24-0.08 11.09 4.18 21.03 9.86 5.1 0.12 10.58-1.13 16.5 2.22 4.1 2.39 4.65 7.34 6.6 12.01 2.9 7.06 6.06 8.04 7.85 14.08 1.65 6.01-1.73 12.12-3.83 16.5-2.57 5.48-8.68 14.15-18.87 15.8" stroke="#C99A42" stroke-linecap="round" stroke-linejoin="round" stroke-width="1.5"/>
  <path d="m149.2 28.66c5.54 3.3 4.65 10.06 4.91 12.85 5.54 4.33 10.59 13.62 11.29 17.59 0.81 4.38-1.48 8.01-2.44 15.74-0.94 7.67-4.82 14.83-14.5 16.86-3.34 0.74-6.86 0.91-10.28 1.18-4.38 7.03-11.03 13.25-21.66 12.58-8.82-0.58-11.24-4.64-17.5-8.73-3.63-2.35-8.59-3.12-12.01-8.48-3.81-5.89-2.42-11.63-0.47-17.08 2.34-6.81 3-10.79 4.17-15.24 3.44-5.82 7.54-10.15 18.35-9.92" stroke="#C99A42" stroke-linecap="round" stroke-linejoin="round" stroke-width="1.5"/>
  <path d="m153.5 41.08c-4.78-2.27-11.38-1.91-13.64-0.77-3.77-4.22-8.4-4.72-14.64-4.42-10.17 0.49-16 6.77-16.67 15.99-0.53 7.1 1.26 10.2 5.52 18.54 2.36 4.79 2.19 8.29 9.05 13.31 6.08 4.53 12.28 6.18 18.2 3.5" stroke="#C99A42" stroke-linecap="round" stroke-linejoin="round" stroke-width="1.5"/>
  <path d="m136 43.38c6.28 0 12.88 6.76 13.89 9.48 2.09 5.46 3.74 12.07 3.74 17.1 0 7.19-3.42 12.05-10.65 17.08-2.09 1.38-3.42 3.74-4.99 6.03" stroke="#C99A42" stroke-linecap="round" stroke-linejoin="round" stroke-width="1.5"/>
  <path d="m119.9 53.71c2.18-4.53 5.78-10.65 15.95-9.81" stroke="#C99A42" stroke-linecap="round" stroke-linejoin="round" stroke-width="1.5"/>
  <path d="m108.7 54.26c-3.43 3.15-6.97 5.67-6.97 13.34 0 5.03 4.53 8.62 5.38 13.65 1.43 8.97 6.64 13.03 17.84 13.39 3.8 0.09 8.06-0.72 11.76-1.92" stroke="#C99A42" stroke-linecap="round" stroke-linejoin="round" stroke-width="1.5"/>
  <path d="m113.8 68.84c-0.24-6.87 4.17-11.46 6.82-14.22 2.48-2.71 8.53-3.86 11.59-3.69 5.25 0.3 9.46 5.21 9.7 11.68 0.35 8.22-2.94 15.15-10.51 15.15-7.73 0-14.48-3.43-17.6-8.92z" stroke="#C99A42" stroke-linecap="round" stroke-linejoin="round" stroke-width="1.5"/>
  <path d="m126.4 66.19c-2.73-3.77 0.57-11.24 5.72-12.48 3.96-0.98 7.18 3.2 7.65 4.65 0.85 2.81-2.92 5.38-4.62 4.55-2.1-1.03-2.98-2.89-4.47-2.89-1.86-0.05-4.16 1.31-3.81 5" stroke="#C99A42" stroke-linecap="round" stroke-linejoin="round" stroke-width="1.5"/>
  <path d="m80.18 43.06c-2.09-3.44-0.27-4.15-0.27-10.49 0-11.53-9.79-18.21-21.9-21.65-0.57 2.07-0.22 13.07 2.64 19.28 3.74 8.46 12.17 11.01 18.27 11.84" stroke="#C99A42" stroke-linecap="round" stroke-linejoin="round" stroke-width="1.5"/>
  <path d="m83.62 51.36-4.24-8.89-14.13-22.46" stroke="#C99A42" stroke-linecap="round" stroke-linejoin="round" stroke-width="1.5"/>
  <path d="m89.98 53.98-6.9-3.05-30.36-7.04c-3.8-5.48-10.35-11.67-18.51-12.18-9.34-0.62-20.15 5.5-23.59 7.76 5.98 5.44 14.2 12.51 24.06 12.85 9.06 0.33 14.24-4.51 17.8-7.64" stroke="#C99A42" stroke-linecap="round" stroke-linejoin="round" stroke-width="1.5"/>
  <path d="m52.48 43.51-26.19-2.8" stroke="#C99A42" stroke-linecap="round" stroke-linejoin="round" stroke-width="1.5"/>
  <path d="m73.96 54.96c-4.95-0.74-12.06-2.15-19.14 1.46-7.61 3.9-11.9 15.67-13.04 19.97 7.23 0 14.73-0.73 19.2-2.69 8.29-3.49 10.97-11.62 12.07-18 4.69-3.69 9.26-5.62 14.66-3.38" stroke="#C99A42" stroke-linecap="round" stroke-linejoin="round" stroke-width="1.5"/>
  <path d="m73.05 55.93-21.71 14.03" stroke="#C99A42" stroke-linecap="round" stroke-linejoin="round" stroke-width="1.5"/>
</svg>