<svg xmlns="http://www.w3.org/2000/svg" width="200" height="200" fill="none" viewBox="0 0 200 200">
<!-- SVG created with Arrow, by QuiverAI (https://quiver.ai) -->
  <path d="m88.81 52.9c-2.95-0.82-4.58-1.61-5.62-2.74-1.71-1.9-3.9-6.71-4.13-7.83 2.04-7.85 1.78-15.61-3.4-21.71s-13.65-9.08-18.05-10.4l-0.6-0.22c-0.42 4.74-0.09 15.3 2.67 20.87 3.94 7.89 10.94 10.02 18.46 11.78 1.69 2.15 3.57 5.11 4.68 7.11l-4.3 0.46-25.53-6.3c-2.62-4.18-8.91-10.16-14.86-12.56-11.25-3.18-23.45 3.4-27.92 7.33l-0.21 0.18 0.21 0.44c4.11 4.11 14.19 12.71 24.74 13.3 8.26 0.48 14.95-4.1 18.34-7.75l25.42 5.05 2.4 0.95-8.44 3.13c-5.51-0.87-11.95-1.81-18.33 1.45-7.31 3.73-12.25 16.57-13.41 20.27l0.29 1.05c5.06 0.26 15.67-0.5 21.76-3.61 7.13-3.62 9.92-10.64 11-17.37l7.66-3.35c2.3-0.37 5.67 0.52 7.58 1.63" stroke="#C59A49" stroke-linecap="round" stroke-linejoin="round" stroke-width="1.5"/>
  <path d="m11.32 39.04 14.99 1.79 25.84 2.77" stroke="#C59A49" stroke-linecap="round" stroke-linejoin="round" stroke-width="1.5"/>
  <path d="m64.91 20.06 13.47 21.04" stroke="#C59A49" stroke-linecap="round" stroke-linejoin="round" stroke-width="1.5"/>
  <path d="m50.99 69.3 21.72-14.29" stroke="#C59A49" stroke-linecap="round" stroke-linejoin="round" stroke-width="1.5"/>
  <path d="m92.57 76.16c-3.51 3.05-3.48 9.6-0.05 13.69 4.44 5.31 6.46 8.13 10.36 14.86 5.01 8.27 15.08 9.27 24.3 6.65 6.63-1.98 10.73-3.48 13.94-7.17" stroke="#C59A49" stroke-linecap="round" stroke-linejoin="round" stroke-width="1.5"/>
  <path d="m108.4 32.94c6.27-6.18 13.56-14.26 19.4-15.5 5.56-1.17 10.05 1.83 17.24 7.71" stroke="#C59A49" stroke-linecap="round" stroke-linejoin="round" stroke-width="1.5"/>
  <path d="m146.2 25.86c4.68 0.77 16.78 3.8 19.96 5.05 6.26 2.55 9.28 16.75 8.23 25.4-1.52 10.38-7.45 17.75-16.52 20.61" stroke="#C59A49" stroke-linecap="round" stroke-linejoin="round" stroke-width="1.5"/>
  <path d="m175.4 56.41c4.6 2.5 7.46 10.27 4.3 16.61-2.68 5.47-5.59 9.26-6.82 17.94-1.5 10.3-7.11 14.29-15.43 16.66-6.29 1.6-13.23 0.77-16.85-0.87" stroke="#C59A49" stroke-linecap="round" stroke-linejoin="round" stroke-width="1.5"/>
  <path d="m119.5 31.57c-8.82-1.36-11.77-0.5-16.88 2.49-3.69 2.21-10.49 4.61-11.19 7.47-0.93 3.73-0.65 6.63-2.22 15.87-1.27 6.79-0.76 14.76 5.62 19.73 3.35 2.73 6.97 3.62 11.61 4.88" stroke="#C59A49" stroke-linecap="round" stroke-linejoin="round" stroke-width="1.5"/>
  <path d="m108 52.11c-5.01 3.94-7 8.7-6.61 15.79 0.54 8.09 5.51 18.06 14.57 20.92 4.93 1.56 10.25-0.23 12.81-1.12" stroke="#C59A49" stroke-linecap="round" stroke-linejoin="round" stroke-width="1.5"/>
  <path d="m116.7 89.6c3.51 5.81 6.59 10.74 15.81 10.03 5.42-0.47 7.67-1.25 13.22-0.95 9.07 0.48 13.32-3.57 18.8-13.58 3.11-5.58 3.07-9.04 3.01-12.78" stroke="#C59A49" stroke-linecap="round" stroke-linejoin="round" stroke-width="1.5"/>
  <path d="m123.9 43.44c-5.95 2.82-7.62 14.65-8.65 21.99-0.79 6.12 9.72 20.21 16.06 22.2 4.68 1.06 9.25 1.43 13.4 0.64 7-1.5 12.18-6.34 13.58-15.06 1.52-8.68 2.99-13.07-0.68-22.45-2.49-5.68-7.3-12.05-15.69-11.23-5.29 0.53-6.22 1.55-9.21 1.58-3.28 0.07-5.58 0.5-8.81 2.33z" stroke="#C59A49" stroke-linecap="round" stroke-linejoin="round" stroke-width="1.5"/>
  <path d="m126.4 57.76c-0.83-3.73-1.33-11.7-1.36-13.95" stroke="#C59A49" stroke-linecap="round" stroke-linejoin="round" stroke-width="1.5"/>
  <path d="m133.3 41.21c3.86 1.21 7.76 4.25 8.95 6.5" stroke="#C59A49" stroke-linecap="round" stroke-linejoin="round" stroke-width="1.5"/>
  <path d="m140 67.02c3.96-0.93 8.95-3.41 10.76-9.12-2.31-7.89-5.56-9.19-9.93-9.64-5.95-0.65-10.63 1.8-13.17 8.4l1.05 2.06c1.61 2.5 5.01 4.34 8.09 4.54 3.75 0.23 5.91-1.49 6.23-4.48 0.29-2.87-1.38-5.53-4.73-5.5-3.08-0.04-6.19 1.73-7.68 4.42" stroke="#C59A49" stroke-linecap="round" stroke-linejoin="round" stroke-width="1.5"/>
  <path d="m125.9 57.48c0.53 3.43 2.64 8.48 7.9 9.56 4.15 0.9 7.16-0.93 8.88-5.83 1.26-3.73 0.36-7.82-4-8.28-3.89-0.4-8.29 2.15-10.3 5.41" stroke="#C59A49" stroke-linecap="round" stroke-linejoin="round" stroke-width="1.5"/>
  <path d="m116.5 65.07c1.42 6.61 7.19 9.56 13.94 10.57 4.37 1.2 6.96 3.51 12.45 3.3 7.81-0.35 11.05-9.73 10.36-15.32-0.5-4.51-3.17-12.01-10.95-13.39" stroke="#C59A49" stroke-linecap="round" stroke-linejoin="round" stroke-width="1.5"/>
  <path d="m117.5 32.11c4.68-2.63 11.3-2.08 16.49-0.48 4.53 1.47 7.64 3.62 9.19 7.44" stroke="#C59A49" stroke-linecap="round" stroke-linejoin="round" stroke-width="1.5"/>
  <path d="m145.2 25.77c-5.05 0-10.17 1.9-14.18 4.84" stroke="#C59A49" stroke-linecap="round" stroke-linejoin="round" stroke-width="1.5"/>
  <path d="m145.7 98.68c-1.33 4.1-4.68 7.17-6.23 7.85" stroke="#C59A49" stroke-linecap="round" stroke-linejoin="round" stroke-width="1.5"/>
  <path d="m142.9 106.2c5 3.29 4.26 11.62 7.89 13.87 2.55 1.47 4.43 1.36 6.6 0.98 5.94-0.83 13.91-1.31 20.71 5.68 5.8 6.07 8.59 14.42 9.6 17.34-4.47-0.41-15.31-1.28-21.44-5.64-7.81-5.5-7.27-11.62-8.56-15.81" stroke="#C59A49" stroke-linecap="round" stroke-linejoin="round" stroke-width="1.5"/>
  <path d="m158.1 122.7 20.22 14.48" stroke="#C59A49" stroke-linecap="round" stroke-linejoin="round" stroke-width="1.5"/>
  <path d="m146.2 111.7c3.67 6.1 6.64 14.71 8.19 35.44" stroke="#C59A49" stroke-linecap="round" stroke-linejoin="round" stroke-width="1.5"/>
  <path d="m149.6 154c-6.45 9.8-3.31 19.81 8.02 35.65 6.82-10.73 8.48-17.53 8.27-23.95-0.46-8.28-7.88-15.05-11.23-17.6-2.25 0.73-4.63 4.5-5.06 5.9z" stroke="#C59A49" stroke-linecap="round" stroke-linejoin="round" stroke-width="1.5"/>
  <path d="m154.9 149.2 1.58 24.52" stroke="#C59A49" stroke-linecap="round" stroke-linejoin="round" stroke-width="1.5"/>
  <path d="m145.7 127.1c1.36 9.21 0.69 16.99-6.83 23.24-4.94 4.2-11.74 6.82-16.28 8.05 0.03-9.66 1.58-20.75 9.42-25.87 4.3-2.88 7.06-2.85 11.88-4.57 3.32-1.23 4.22-7.86 3.93-10.89" stroke="#C59A49" stroke-linecap="round" stroke-linejoin="round" stroke-width="1.5"/>
  <path d="m143.9 129.8-14.81 18.84" stroke="#C59A49" stroke-linecap="round" stroke-linejoin="round" stroke-width="1.5"/>
</svg>