<svg xmlns="http://www.w3.org/2000/svg" width="250" height="250" fill="none" viewBox="0 0 250 250">
<!-- SVG created with Arrow, by QuiverAI (https://quiver.ai) -->
  <path d="m164.7 239.5c3.23-16.19 5.76-45.53 5.64-57.31-0.15-15.23 0.79-17.3 8.99-31.87" stroke="#CBA14A" stroke-linecap="round" stroke-linejoin="round" stroke-width="2.6"/>
  <path d="m179.4 150.3c-3.3-16.07 1.38-26.95 18.59-32.81 6.73-2.43 12.34-3.1 21.45-5.39-6.44 14.69-8.66 34.84-28.32 37.41-4.36 0.57-6.9 1.08-11.72 0.79z" stroke="#CBA14A" stroke-linecap="round" stroke-linejoin="round" stroke-width="2.6"/>
  <path d="m180 148.9c6-8.8 9.09-11.89 17.43-18.47" stroke="#CBA14A" stroke-linecap="round" stroke-linejoin="round" stroke-width="2.6"/>
  <path d="m170.6 180c-0.72-22.08 0.58-53.32-4.76-89.18" stroke="#CBA14A" stroke-linecap="round" stroke-linejoin="round" stroke-width="2.6"/>
  <path d="m159.8 162.7c4.23-12.53 0.41-26.4-14.44-32.76-7.19-3.2-13.16-3.63-25.06-5.53 6.37 15.36 8.78 35.47 29.68 38.05 3.78 0.47 5.42 0.24 9.82 0.24z" stroke="#CBA14A" stroke-linecap="round" stroke-linejoin="round" stroke-width="2.6"/>
  <path d="m160.8 162.4c-6.72-8.5-10-12.59-19.64-20.18" stroke="#CBA14A" stroke-linecap="round" stroke-linejoin="round" stroke-width="2.6"/>
  <path d="m132.8 26.06c6.23 0 11.43 0.14 15.97-2.25 3.54-1.85 9-5.88 13.1-8.07 1.99-1.02 4.11 0.14 5.9 1.27 5.98 3.7 11.95 6.96 16.05 11.7 4.52-2.04 8.53-1.74 12.36-1.1 2.87 0.49 5.09 2.01 3.87 5.28-1.38 3.94-2.48 8.03-2.48 11.84 5.67 1.56 11.4 6.25 14.77 10.63 2.01 2.75 1.49 3.93-1.45 7.03-5.17 4.88-7.15 7.55-11.22 14.66-1.34 13.02-0.27 18.3-8.73 18.3h-11.69c-8.16 0-10.22-1.56-13.64-5.64-4.47 5.72-9.66 11.45-16.93 11.45-5.4 0-9.11-9.54-15.63-11.7-6.17-2.14-13.04-2.5-13.04-6.06 0-3.24 3.36-6.69 5.96-10.68-2.52-4.53-4.43-9.53-11.89-12.59-7.07-2.04-9.48-2.57-16.21-12.44 5.94-12.13 5-23.56-7.2-30.83-4.8-2.91-7.37-4.45-12.3-6.76 0 6.76-0.19 10.62 0 14.72 0.58 11.39 7.09 20.55 19.5 22.87" stroke="#CBA14A" stroke-linecap="round" stroke-linejoin="round" stroke-width="2.3"/>
  <path d="m126.7 45.92c-4.71 2.35-8.79 3.86-8.66 8.95 0.06 2.9 5.45 11.09 9.95 18.4 5 8.1 9.94 10.94 20.85 12.92" stroke="#CBA14A" stroke-linecap="round" stroke-linejoin="round" stroke-width="2.3"/>
  <path d="m149.8 33.91c-7.4 0.98-12.93 4.25-13.42 10.84-0.43 5.72 3.39 13.93 8.03 16.18 8.39 4 21.7 6.46 21.7 18.93v8.48" stroke="#CBA14A" stroke-linecap="round" stroke-linejoin="round" stroke-width="2.3"/>
  <path d="m148.8 23.81c4.45 0 9.95 2.68 13.61 3.4 4.79 0 7.79 2.4 12.31 6.13 3 0 13.65 2.09 14.12 9.56 0.25 4.29-2.79 10.46-13.44 16.49-4.43 2.57-9.29 5.42-11.78 9.7" stroke="#CBA14A" stroke-linecap="round" stroke-linejoin="round" stroke-width="2.3"/>
  <path d="m175.7 57.46 0.41-12.71c0-5.61-6.42-7.74-10.27-7.74-3.89 0-7.46 1.2-7.46 3.91 0 2.2 2.56 2.89 6.03 2.89 3.66 0 5.08 1.16 5.08 3.2" stroke="#CBA14A" stroke-linecap="round" stroke-linejoin="round" stroke-width="2.3"/>
  <path d="m149.3 44.75c0 5.21 6 6.23 11.47 6.23 7.15 0 14.82-5.26 14.82-8.16" stroke="#CBA14A" stroke-linecap="round" stroke-linejoin="round" stroke-width="2.3"/>
  <path d="m150.5 33.91c3.25-4.77 6.17-6.7 9.71-6.7" stroke="#CBA14A" stroke-linecap="round" stroke-linejoin="round" stroke-width="2.3"/>
  <path d="m177.8 32.23 6.05-3.52" stroke="#CBA14A" stroke-linecap="round" stroke-linejoin="round" stroke-width="2.3"/>
  <path d="m196.6 45.14c1.77 12.57 0.99 23.59-9.51 33.74-3.66 3.62-9 5.88-16.98 8.84" stroke="#CBA14A" stroke-linecap="round" stroke-linejoin="round" stroke-width="2.3"/>
  <path d="m188.8 44.75c-1.74 6.46-1.74 11.54-1.74 22.92 0 10.71-6.28 17.56-20.41 20.67-0.94-6.27 1.02-9.46-2.52-16.73" stroke="#CBA14A" stroke-linecap="round" stroke-linejoin="round" stroke-width="2.3"/>
  <path d="m138.1 47 0.74 17.09c0 9.01 4.8 22.1 21.62 24.25h5.4" stroke="#CBA14A" stroke-linecap="round" stroke-linejoin="round" stroke-width="2.3"/>
  <path d="m99.88 47.69-10.34-18.73" stroke="#CBA14A" stroke-linecap="round" stroke-linejoin="round" stroke-width="2.3"/>
  <path d="m119.2 61.01-12.82-3.83-24.05-6.52c-6.73-10.03-15.2-13.65-23.67-13.13-6.73 0.41-18.28 6.39-28.16 9.89 10.65 4.86 17.25 12.84 28.16 13.17 8.99 0.29 13.79-2.62 22.69-9.93 7.85 1.21 18.93 3.29 25.03 6.52" stroke="#CBA14A" stroke-linecap="round" stroke-linejoin="round" stroke-width="2.3"/>
  <path d="m57.01 48.63c8.12 0 16.21 0.53 24.3 2.03" stroke="#CBA14A" stroke-linecap="round" stroke-linejoin="round" stroke-width="2.3"/>
  <path d="m101.8 61.92c-12.3-1.75-23.85 0.66-29.05 16.27l-2.67 11.52-0.15 1.63c9.31-3.86 29.3-4.09 30.69-25.32l1.18-4.1z" stroke="#CBA14A" stroke-linecap="round" stroke-linejoin="round" stroke-width="2.3"/>
  <path d="m101.8 61.92c-5.54 3.81-9.78 6.97-15.75 13.98" stroke="#CBA14A" stroke-linecap="round" stroke-linejoin="round" stroke-width="2.3"/>
  <path d="m101.2 61.6 8.32-3.46" stroke="#CBA14A" stroke-linecap="round" stroke-linejoin="round" stroke-width="2.3"/>
</svg>