<svg xmlns="http://www.w3.org/2000/svg" width="250" height="250" fill="none" viewBox="0 0 250 250">
<!-- SVG created with Arrow, by QuiverAI (https://quiver.ai) -->
  <path d="m127 238.8c7.3-21.75 12.78-43.55 14.94-68.16 1.72-20.43 12.96-36.81 27.87-37.27 9.27-0.31 15.36 6.38 15.33 13.61-0.03 6.94-5.4 11.1-10.72 10.82-5.31-0.27-8.88-2.87-8.94-7.93-0.05-4.01 2.47-6.43 4.93-6.46 2.8-0.03 3.92 1.57 4.2 3.68" stroke="#C99F43" stroke-linecap="round" stroke-linejoin="round" stroke-miterlimit="10" stroke-width="2.4"/>
  <path d="m157.6 123.6c4.56 1.09 14.07 0.55 21.34-6.39 8.24-7.86 7.44-20.41 9.25-30.78-7.92 3.54-20.12 4.72-27.51 13.07-5.8 6.58-6.88 15.35-3 23.3 5.45-8.87 10.2-15.05 16.1-19.19" stroke="#C99F43" stroke-linecap="round" stroke-linejoin="round" stroke-miterlimit="10" stroke-width="2.4"/>
  <path d="m143.8 155.8c2.96-9.76 10.53-22.94 24.1-23.34" stroke="#C99F43" stroke-linecap="round" stroke-linejoin="round" stroke-miterlimit="10" stroke-width="2.4"/>
  <path d="m137.2 210.2c0.49-20.99-7.42-36.13-13.36-41.99-6.06-7.41-11.06-17.57-27.68-23.07" stroke="#C99F43" stroke-linecap="round" stroke-linejoin="round" stroke-miterlimit="10" stroke-width="2.4"/>
  <path d="m121.5 114.8c-3.55 9.11-11.73 14.18-8.98 25.12 1.61 6.59 5.61 9.83 7.89 11.24 5.09-3.7 9.29-7.44 9.16-14.84-0.13-7.39-6.63-14.72-8.07-21.52z" stroke="#C99F43" stroke-linecap="round" stroke-linejoin="round" stroke-miterlimit="10" stroke-width="2.4"/>
  <path d="m120.1 133 0.32 29.3" stroke="#C99F43" stroke-linecap="round" stroke-linejoin="round" stroke-miterlimit="10" stroke-width="2.4"/>
  <path d="m102.6 143.2c1.11-8.74-3.99-19.89-17.84-23.03-4.68-1.08-16.54-0.01-23.99-0.96 6.71 7.83 8.19 18.34 17.32 24.52 7.6 4.9 16.27 3.05 21.64 0.73" stroke="#C99F43" stroke-linecap="round" stroke-linejoin="round" stroke-miterlimit="10" stroke-width="2.4"/>
  <path d="m81.23 129.7c8.34 3.59 16.93 8.37 21.86 12.33" stroke="#C99F43" stroke-linecap="round" stroke-linejoin="round" stroke-miterlimit="10" stroke-width="2.4"/>
  <path d="m123.2 167.2c-4.79-5.46-11.14-9.51-21.16-9.83-9.4-0.33-16.24 5.46-16.24 13.17 0 8.05 4.65 12.37 11.14 12.2s9.36-5.49 9.1-8.5c-0.26-2.93-2.7-5.84-6.41-5.68-2.8 0.11-3.44 1.24-3.96 2.63" stroke="#C99F43" stroke-linecap="round" stroke-linejoin="round" stroke-miterlimit="10" stroke-width="2.4"/>
  <path d="m136.8 101.6c4.35 20.41 7.47 45.18 5.21 69.01" stroke="#C99F43" stroke-linecap="round" stroke-linejoin="round" stroke-miterlimit="10" stroke-width="2.4"/>
  <path d="m139.9 87.82c3.61-0.03 12.79-2.94 16.49-13.77 2.8-8.22 2.44-10.93 8.51-16.79-3.92 0.99-10.8 5.56-13.48 11.95" stroke="#C99F43" stroke-linecap="round" stroke-linejoin="round" stroke-miterlimit="10" stroke-width="2.4"/>
  <path d="m141.4 28.77c2.13 9.94 9.74 20.72 10.16 30.29 0.88 12.97-2.62 23.77-17.25 30.05-5.52 2.55-16.14-2.98-18.24-14.1-2.1-10.25 2.04-18.9 13.01-25.9 8.28-5.38 4.66-10.42 8.09-16.03 2.02-3.39 6.69-8.06 6.76-12.62 0.03-4.3-4.66-8.38-10.3-5.55" stroke="#C99F43" stroke-linecap="round" stroke-linejoin="round" stroke-miterlimit="10" stroke-width="2.4"/>
  <path d="m129.7 15.29c4.2 2.82 4.08 12.53 0.23 18.43-4.89 7.19-8.66 11.91-11.73 17.81-3.55-4.35-8.03-7.34-14.6-8.71-4.92-1.11-13.13-4.67-15.04-7.97-2.43-4.34 1.57-6.6 3.67-6.63" stroke="#C99F43" stroke-linecap="round" stroke-linejoin="round" stroke-miterlimit="10" stroke-width="2.4"/>
  <path d="m129.4 15.12c-3.17-2.9-6.35-4.94-11.25-2.45-3.92 2.05-3.5 2.98-9.3 3.14-7.02 0.17-11.8 4.31-11.65 9.44 0.29 4.66 3.24 12.78 5.68 16.48" stroke="#C99F43" stroke-linecap="round" stroke-linejoin="round" stroke-miterlimit="10" stroke-width="2.4"/>
  <path d="m93.16 37.33c4.93 4.66 3.49 14.45 3.87 23.08 0.24 13.34 5.01 25.71 27.94 29.41" stroke="#C99F43" stroke-linecap="round" stroke-linejoin="round" stroke-miterlimit="10" stroke-width="2.4"/>
  <path d="m126.7 18.79c-4.02-1.51-6.06-2.72-10.96-1.13-4.29 1.42-7.6 3.43-6.9 6.51 0.79 3.04 4.44 3.17 6.46 1.76l3.83-2.67" stroke="#C99F43" stroke-linecap="round" stroke-linejoin="round" stroke-miterlimit="10" stroke-width="2.4"/>
  <path d="m127.4 21.32-10.32 11.13-1.18 0.93c-3.4-0.7-12.53-1.64-17.83-6.47" stroke="#C99F43" stroke-linecap="round" stroke-linejoin="round" stroke-miterlimit="10" stroke-width="2.4"/>
  <path d="m125.7 93.17c0.37 4.79 2.91 8.59 8.88 8.45 5.51-0.14 7.04-7.31 6-13.01" stroke="#C99F43" stroke-linecap="round" stroke-linejoin="round" stroke-miterlimit="10" stroke-width="2.4"/>
  <path d="m86.26 82.74c7.92-0.67 11.35 2.37 16.87 6.23 4.81 3.41 7.99 7.34 21.06 4.63" stroke="#C99F43" stroke-linecap="round" stroke-linejoin="round" stroke-miterlimit="10" stroke-width="2.4"/>
</svg>